Coordinates
version=1
nRows=62
nColumns=21
inDegrees=no
endheader
time	ra_wr_s_p	ra_wr_e_f	ra_cmc1_ad_ab	ra_cmc1_f_e	ra_mcp1_f_e	ra_ip1_f_e	ra_mcp2_e_f	ra_pip2_e_f	ra_dip2_e_f	ra_mcp3_e_f	ra_pip3_e_f	ra_dip3_e_f	ra_mcp4_e_f	ra_pip4_e_f	ra_dip4_e_f	ra_mcp5_e_f	ra_pip5_e_f	ra_dip5_e_f	ra_el_e_f	ra_wr_ad_ab
0.000000	1.117040	0.087300	0.436350	0.436350	-0.392700	-0.785400	0.785400	1.047200	0.785400	0.785400	1.047200	0.785400	0.785400	1.047200	0.785400	0.785400	1.047200	0.785400	1.570796	0.001000
0.001000	1.117040	0.087294	0.436348	0.436348	-0.392698	-0.785396	0.785396	1.047195	0.785396	0.785396	1.047195	0.785396	0.785396	1.047195	0.785396	0.785396	1.047195	0.785396	1.570796	0.001000
0.002000	1.117040	0.087282	0.436343	0.436343	-0.392694	-0.785388	0.785388	1.047184	0.785388	0.785388	1.047184	0.785388	0.785388	1.047184	0.785388	0.785388	1.047184	0.785388	1.570796	0.001000
0.003000	1.117040	0.087264	0.436337	0.436337	-0.392688	-0.785376	0.785376	1.047168	0.785376	0.785376	1.047168	0.785376	0.785376	1.047168	0.785376	0.785376	1.047168	0.785376	1.570796	0.001000
0.004000	1.117040	0.087240	0.436328	0.436328	-0.392680	-0.785360	0.785360	1.047146	0.785360	0.785360	1.047146	0.785360	0.785360	1.047146	0.785360	0.785360	1.047146	0.785360	1.570796	0.001000
0.005000	1.117040	0.087210	0.436316	0.436316	-0.392670	-0.785339	0.785339	1.047119	0.785339	0.785339	1.047119	0.785339	0.785339	1.047119	0.785339	0.785339	1.047119	0.785339	1.570796	0.001000
0.006000	1.117040	0.087174	0.436303	0.436303	-0.392657	-0.785315	0.785315	1.047086	0.785315	0.785315	1.047086	0.785315	0.785315	1.047086	0.785315	0.785315	1.047086	0.785315	1.570796	0.001000
0.007000	1.117040	0.087131	0.436287	0.436287	-0.392643	-0.785286	0.785286	1.047048	0.785286	0.785286	1.047048	0.785286	0.785286	1.047048	0.785286	0.785286	1.047048	0.785286	1.570796	0.001000
0.008000	1.117040	0.087082	0.436268	0.436268	-0.392626	-0.785253	0.785253	1.047003	0.785253	0.785253	1.047003	0.785253	0.785253	1.047003	0.785253	0.785253	1.047003	0.785253	1.570796	0.001000
0.009000	1.117040	0.087026	0.436247	0.436247	-0.392607	-0.785215	0.785215	1.046953	0.785215	0.785215	1.046953	0.785215	0.785215	1.046953	0.785215	0.785215	1.046953	0.785215	1.570796	0.001000
0.010000	1.117040	0.086963	0.436224	0.436224	-0.392586	-0.785173	0.785173	1.046897	0.785173	0.785173	1.046897	0.785173	0.785173	1.046897	0.785173	0.785173	1.046897	0.785173	1.570796	0.001000
0.011000	1.117040	0.086894	0.436198	0.436198	-0.392563	-0.785126	0.785126	1.046835	0.785126	0.785126	1.046835	0.785126	0.785126	1.046835	0.785126	0.785126	1.046835	0.785126	1.570796	0.001000
0.012000	1.117040	0.086819	0.436169	0.436169	-0.392538	-0.785075	0.785075	1.046767	0.785075	0.785075	1.046767	0.785075	0.785075	1.046767	0.785075	0.785075	1.046767	0.785075	1.570796	0.001000
0.013000	1.117040	0.086736	0.436138	0.436138	-0.392510	-0.785019	0.785019	1.046692	0.785019	0.785019	1.046692	0.785019	0.785019	1.046692	0.785019	0.785019	1.046692	0.785019	1.570796	0.001000
0.014000	1.117040	0.086647	0.436105	0.436105	-0.392479	-0.784959	0.784959	1.046612	0.784959	0.784959	1.046612	0.784959	0.784959	1.046612	0.784959	0.784959	1.046612	0.784959	1.570796	0.001000
0.015000	1.117040	0.086550	0.436069	0.436069	-0.392447	-0.784894	0.784894	1.046525	0.784894	0.784894	1.046525	0.784894	0.784894	1.046525	0.784894	0.784894	1.046525	0.784894	1.570796	0.001000
0.016000	1.117040	0.086446	0.436030	0.436030	-0.392412	-0.784824	0.784824	1.046432	0.784824	0.784824	1.046432	0.784824	0.784824	1.046432	0.784824	0.784824	1.046432	0.784824	1.570796	0.001000
0.017000	1.117040	0.086335	0.435988	0.435988	-0.392374	-0.784749	0.784749	1.046332	0.784749	0.784749	1.046332	0.784749	0.784749	1.046332	0.784749	0.784749	1.046332	0.784749	1.570796	0.001000
0.018000	1.117040	0.086217	0.435944	0.435944	-0.392335	-0.784669	0.784669	1.046226	0.784669	0.784669	1.046226	0.784669	0.784669	1.046226	0.784669	0.784669	1.046226	0.784669	1.570796	0.001000
0.019000	1.117040	0.086092	0.435897	0.435897	-0.392292	-0.784584	0.784584	1.046113	0.784584	0.784584	1.046113	0.784584	0.784584	1.046113	0.784584	0.784584	1.046113	0.784584	1.570796	0.001000
0.020000	1.117040	0.085959	0.435847	0.435847	-0.392247	-0.784495	0.784495	1.045993	0.784495	0.784495	1.045993	0.784495	0.784495	1.045993	0.784495	0.784495	1.045993	0.784495	1.570796	0.001000
0.021000	1.117040	0.085819	0.435794	0.435794	-0.392200	-0.784400	0.784400	1.045867	0.784400	0.784400	1.045867	0.784400	0.784400	1.045867	0.784400	0.784400	1.045867	0.784400	1.570796	0.001000
0.022000	1.117040	0.085670	0.435739	0.435739	-0.392150	-0.784300	0.784300	1.045733	0.784300	0.784300	1.045733	0.784300	0.784300	1.045733	0.784300	0.784300	1.045733	0.784300	1.570796	0.001000
0.023000	1.117040	0.085515	0.435680	0.435680	-0.392097	-0.784195	0.784195	1.045593	0.784195	0.784195	1.045593	0.784195	0.784195	1.045593	0.784195	0.784195	1.045593	0.784195	1.570796	0.001000
0.024000	1.117040	0.085351	0.435619	0.435619	-0.392042	-0.784084	0.784084	1.045446	0.784084	0.784084	1.045446	0.784084	0.784084	1.045446	0.784084	0.784084	1.045446	0.784084	1.570796	0.001000
0.025000	1.117040	0.085179	0.435555	0.435555	-0.391984	-0.783968	0.783968	1.045291	0.783968	0.783968	1.045291	0.783968	0.783968	1.045291	0.783968	0.783968	1.045291	0.783968	1.570796	0.001000
0.026000	1.117040	0.085000	0.435487	0.435487	-0.391924	-0.783847	0.783847	1.045130	0.783847	0.783847	1.045130	0.783847	0.783847	1.045130	0.783847	0.783847	1.045130	0.783847	1.570796	0.001000
0.027000	1.117040	0.084812	0.435417	0.435417	-0.391860	-0.783720	0.783720	1.044961	0.783720	0.783720	1.044961	0.783720	0.783720	1.044961	0.783720	0.783720	1.044961	0.783720	1.570796	0.001000
0.028000	1.117040	0.084616	0.435343	0.435343	-0.391794	-0.783588	0.783588	1.044784	0.783588	0.783588	1.044784	0.783588	0.783588	1.044784	0.783588	0.783588	1.044784	0.783588	1.570796	0.001000
0.029000	1.117040	0.084411	0.435267	0.435267	-0.391725	-0.783450	0.783450	1.044600	0.783450	0.783450	1.044600	0.783450	0.783450	1.044600	0.783450	0.783450	1.044600	0.783450	1.570796	0.001000
0.030000	1.117040	0.084199	0.435187	0.435187	-0.391653	-0.783307	0.783307	1.044409	0.783307	0.783307	1.044409	0.783307	0.783307	1.044409	0.783307	0.783307	1.044409	0.783307	1.570796	0.001000
0.031000	1.117040	0.083977	0.435104	0.435104	-0.391579	-0.783157	0.783157	1.044210	0.783157	0.783157	1.044210	0.783157	0.783157	1.044210	0.783157	0.783157	1.044210	0.783157	1.570796	0.001000
0.032000	1.117040	0.083747	0.435018	0.435018	-0.391501	-0.783002	0.783002	1.044003	0.783002	0.783002	1.044003	0.783002	0.783002	1.044003	0.783002	0.783002	1.044003	0.783002	1.570796	0.001000
0.033000	1.117040	0.083509	0.434928	0.434928	-0.391420	-0.782841	0.782841	1.043788	0.782841	0.782841	1.043788	0.782841	0.782841	1.043788	0.782841	0.782841	1.043788	0.782841	1.570796	0.001000
0.034000	1.117040	0.083261	0.434835	0.434835	-0.391337	-0.782674	0.782674	1.043565	0.782674	0.782674	1.043565	0.782674	0.782674	1.043565	0.782674	0.782674	1.043565	0.782674	1.570796	0.001000
0.035000	1.117040	0.083005	0.434739	0.434739	-0.391250	-0.782501	0.782501	1.043334	0.782501	0.782501	1.043334	0.782501	0.782501	1.043334	0.782501	0.782501	1.043334	0.782501	1.570796	0.001000
0.036000	1.117040	0.082739	0.434640	0.434640	-0.391161	-0.782321	0.782321	1.043095	0.782321	0.782321	1.043095	0.782321	0.782321	1.043095	0.782321	0.782321	1.043095	0.782321	1.570796	0.001000
0.037000	1.117040	0.082464	0.434537	0.434537	-0.391068	-0.782136	0.782136	1.042848	0.782136	0.782136	1.042848	0.782136	0.782136	1.042848	0.782136	0.782136	1.042848	0.782136	1.570796	0.001000
0.038000	1.117040	0.082180	0.434430	0.434430	-0.390972	-0.781944	0.781944	1.042592	0.781944	0.781944	1.042592	0.781944	0.781944	1.042592	0.781944	0.781944	1.042592	0.781944	1.570796	0.001000
0.039000	1.117040	0.081887	0.434320	0.434320	-0.390873	-0.781746	0.781746	1.042328	0.781746	0.781746	1.042328	0.781746	0.781746	1.042328	0.781746	0.781746	1.042328	0.781746	1.570796	0.001000
0.040000	1.117040	0.081584	0.434206	0.434206	-0.390771	-0.781541	0.781541	1.042055	0.781541	0.781541	1.042055	0.781541	0.781541	1.042055	0.781541	0.781541	1.042055	0.781541	1.570796	0.001000
0.041000	1.117040	0.081271	0.434089	0.434089	-0.390665	-0.781330	0.781330	1.041774	0.781330	0.781330	1.041774	0.781330	0.781330	1.041774	0.781330	0.781330	1.041774	0.781330	1.570796	0.001000
0.042000	1.117040	0.080949	0.433968	0.433968	-0.390556	-0.781113	0.781113	1.041484	0.781113	0.781113	1.041484	0.781113	0.781113	1.041484	0.781113	0.781113	1.041484	0.781113	1.570796	0.001000
0.043000	1.117040	0.080616	0.433843	0.433843	-0.390444	-0.780888	0.780888	1.041185	0.780888	0.780888	1.041185	0.780888	0.780888	1.041185	0.780888	0.780888	1.041185	0.780888	1.570796	0.001000
0.044000	1.117040	0.080274	0.433715	0.433715	-0.390329	-0.780657	0.780657	1.040876	0.780657	0.780657	1.040876	0.780657	0.780657	1.040876	0.780657	0.780657	1.040876	0.780657	1.570796	0.001000
0.045000	1.117040	0.079922	0.433583	0.433583	-0.390210	-0.780419	0.780419	1.040559	0.780419	0.780419	1.040559	0.780419	0.780419	1.040559	0.780419	0.780419	1.040559	0.780419	1.570796	0.001000
0.046000	1.117040	0.079559	0.433447	0.433447	-0.390087	-0.780175	0.780175	1.040233	0.780175	0.780175	1.040233	0.780175	0.780175	1.040233	0.780175	0.780175	1.040233	0.780175	1.570796	0.001000
0.047000	1.117040	0.079186	0.433307	0.433307	-0.389961	-0.779923	0.779923	1.039897	0.779923	0.779923	1.039897	0.779923	0.779923	1.039897	0.779923	0.779923	1.039897	0.779923	1.570796	0.001000
0.048000	1.117040	0.078802	0.433163	0.433163	-0.389832	-0.779664	0.779664	1.039552	0.779664	0.779664	1.039552	0.779664	0.779664	1.039552	0.779664	0.779664	1.039552	0.779664	1.570796	0.001000
0.049000	1.117040	0.078408	0.433015	0.433015	-0.389699	-0.779398	0.779398	1.039197	0.779398	0.779398	1.039197	0.779398	0.779398	1.039197	0.779398	0.779398	1.039197	0.779398	1.570796	0.001000
0.050000	1.117040	0.078003	0.432863	0.432863	-0.389562	-0.779124	0.779124	1.038833	0.779124	0.779124	1.038833	0.779124	0.779124	1.038833	0.779124	0.779124	1.038833	0.779124	1.570796	0.001000
0.051000	1.117040	0.077587	0.432707	0.432707	-0.389422	-0.778844	0.778844	1.038458	0.778844	0.778844	1.038458	0.778844	0.778844	1.038458	0.778844	0.778844	1.038458	0.778844	1.570796	0.001000
0.052000	1.117040	0.077160	0.432547	0.432547	-0.389278	-0.778556	0.778556	1.038074	0.778556	0.778556	1.038074	0.778556	0.778556	1.038074	0.778556	0.778556	1.038074	0.778556	1.570796	0.001000
0.053000	1.117040	0.076722	0.432383	0.432383	-0.389130	-0.778260	0.778260	1.037680	0.778260	0.778260	1.037680	0.778260	0.778260	1.037680	0.778260	0.778260	1.037680	0.778260	1.570796	0.001000
0.054000	1.117040	0.076273	0.432215	0.432215	-0.388978	-0.777957	0.777957	1.037275	0.777957	0.777957	1.037275	0.777957	0.777957	1.037275	0.777957	0.777957	1.037275	0.777957	1.570796	0.001000
0.055000	1.117040	0.075812	0.432042	0.432042	-0.388823	-0.777646	0.777646	1.036861	0.777646	0.777646	1.036861	0.777646	0.777646	1.036861	0.777646	0.777646	1.036861	0.777646	1.570796	0.001000
0.056000	1.117040	0.075340	0.431865	0.431865	-0.388663	-0.777327	0.777327	1.036436	0.777327	0.777327	1.036436	0.777327	0.777327	1.036436	0.777327	0.777327	1.036436	0.777327	1.570796	0.001000
0.057000	1.117040	0.074856	0.431683	0.431683	-0.388500	-0.777000	0.777000	1.036000	0.777000	0.777000	1.036000	0.777000	0.777000	1.036000	0.777000	0.777000	1.036000	0.777000	1.570796	0.001000
0.058000	1.117040	0.074360	0.431497	0.431497	-0.388333	-0.776665	0.776665	1.035554	0.776665	0.776665	1.035554	0.776665	0.776665	1.035554	0.776665	0.776665	1.035554	0.776665	1.570796	0.001000
0.059000	1.117040	0.073852	0.431307	0.431307	-0.388161	-0.776323	0.776323	1.035097	0.776323	0.776323	1.035097	0.776323	0.776323	1.035097	0.776323	0.776323	1.035097	0.776323	1.570796	0.001000
0.060000	1.117040	0.073332	0.431112	0.431112	-0.387986	-0.775972	0.775972	1.034629	0.775972	0.775972	1.034629	0.775972	0.775972	1.034629	0.775972	0.775972	1.034629	0.775972	1.570796	0.001000
0.061000	1.117040	0.072800	0.430912	0.430912	-0.387806	-0.775612	0.775612	1.034150	0.775612	0.775612	1.034150	0.775612	0.775612	1.034150	0.775612	0.775612	1.034150	0.775612	1.570796	0.001000
